<svg width="224" height="67" viewBox="0 0 224 67" fill="none" xmlns="http://www.w3.org/2000/svg">
<path d="M99.464 32.68V29.2H106.976V32.68H99.464ZM99.464 39.256V35.992H106.736V39.256H99.464ZM96.776 29.2H100.664V46H96.776V29.2ZM109.682 27.28H113.33V46H109.682V27.28ZM115.502 40.48C115.502 39.312 115.774 38.296 116.318 37.432C116.862 36.568 117.614 35.896 118.574 35.416C119.534 34.936 120.614 34.696 121.814 34.696C123.014 34.696 124.086 34.936 125.03 35.416C125.99 35.896 126.742 36.568 127.286 37.432C127.846 38.296 128.126 39.312 128.126 40.48C128.126 41.632 127.846 42.64 127.286 43.504C126.742 44.368 125.99 45.04 125.03 45.52C124.086 46 123.014 46.24 121.814 46.24C120.614 46.24 119.534 46 118.574 45.52C117.614 45.04 116.862 44.368 116.318 43.504C115.774 42.64 115.502 41.632 115.502 40.48ZM119.222 40.48C119.222 41.056 119.342 41.552 119.582 41.968C119.822 42.368 120.134 42.68 120.518 42.904C120.902 43.128 121.334 43.24 121.814 43.24C122.278 43.24 122.702 43.128 123.086 42.904C123.486 42.68 123.798 42.368 124.022 41.968C124.262 41.552 124.382 41.056 124.382 40.48C124.382 39.904 124.262 39.408 124.022 38.992C123.798 38.576 123.486 38.256 123.086 38.032C122.702 37.808 122.278 37.696 121.814 37.696C121.334 37.696 120.902 37.808 120.518 38.032C120.134 38.256 119.822 38.576 119.582 38.992C119.342 39.408 119.222 39.904 119.222 40.48ZM128.371 34.96H132.163L134.467 40.624L137.635 34.12L140.875 40.624L143.179 34.96H146.971L141.283 46.696L137.635 40.12L134.059 46.696L128.371 34.96ZM150.421 40.096C150.757 40.704 151.133 41.232 151.549 41.68C151.981 42.128 152.445 42.472 152.941 42.712C153.453 42.952 153.989 43.072 154.549 43.072C155.141 43.072 155.629 42.928 156.013 42.64C156.397 42.336 156.589 41.928 156.589 41.416C156.589 40.984 156.477 40.64 156.253 40.384C156.029 40.112 155.669 39.856 155.173 39.616C154.677 39.376 154.021 39.104 153.205 38.8C152.805 38.656 152.341 38.456 151.813 38.2C151.301 37.944 150.813 37.616 150.349 37.216C149.885 36.8 149.501 36.304 149.197 35.728C148.893 35.136 148.741 34.424 148.741 33.592C148.741 32.6 148.997 31.744 149.509 31.024C150.037 30.304 150.741 29.76 151.621 29.392C152.517 29.008 153.509 28.816 154.597 28.816C155.717 28.816 156.685 29 157.501 29.368C158.333 29.736 159.021 30.2 159.565 30.76C160.109 31.32 160.525 31.888 160.813 32.464L157.717 34.192C157.477 33.792 157.197 33.448 156.877 33.16C156.573 32.856 156.229 32.624 155.845 32.464C155.477 32.288 155.077 32.2 154.645 32.2C154.069 32.2 153.629 32.328 153.325 32.584C153.021 32.824 152.869 33.128 152.869 33.496C152.869 33.88 153.013 34.216 153.301 34.504C153.605 34.792 154.029 35.056 154.573 35.296C155.133 35.536 155.805 35.792 156.589 36.064C157.181 36.288 157.733 36.552 158.245 36.856C158.757 37.144 159.205 37.496 159.589 37.912C159.989 38.328 160.301 38.808 160.525 39.352C160.749 39.896 160.861 40.52 160.861 41.224C160.861 42.072 160.685 42.832 160.333 43.504C159.997 44.16 159.533 44.712 158.941 45.16C158.365 45.608 157.701 45.944 156.949 46.168C156.213 46.408 155.453 46.528 154.669 46.528C153.581 46.528 152.565 46.336 151.621 45.952C150.693 45.552 149.885 45.016 149.197 44.344C148.509 43.672 147.973 42.936 147.589 42.136L150.421 40.096ZM166.813 51.28H163.189V34.96H166.813V51.28ZM175.837 40.48C175.837 41.76 175.581 42.84 175.069 43.72C174.573 44.6 173.925 45.264 173.125 45.712C172.341 46.16 171.493 46.384 170.581 46.384C169.621 46.384 168.789 46.144 168.085 45.664C167.397 45.168 166.869 44.48 166.501 43.6C166.133 42.704 165.949 41.664 165.949 40.48C165.949 39.28 166.133 38.24 166.501 37.36C166.869 36.48 167.397 35.8 168.085 35.32C168.789 34.824 169.621 34.576 170.581 34.576C171.493 34.576 172.341 34.8 173.125 35.248C173.925 35.696 174.573 36.36 175.069 37.24C175.581 38.104 175.837 39.184 175.837 40.48ZM172.021 40.48C172.021 39.904 171.901 39.416 171.661 39.016C171.421 38.616 171.101 38.312 170.701 38.104C170.301 37.896 169.861 37.792 169.381 37.792C168.965 37.792 168.557 37.896 168.157 38.104C167.773 38.296 167.453 38.592 167.197 38.992C166.941 39.392 166.813 39.888 166.813 40.48C166.813 41.072 166.941 41.568 167.197 41.968C167.453 42.368 167.773 42.672 168.157 42.88C168.557 43.072 168.965 43.168 169.381 43.168C169.861 43.168 170.301 43.064 170.701 42.856C171.101 42.648 171.421 42.344 171.661 41.944C171.901 41.544 172.021 41.056 172.021 40.48ZM180.833 42.544C180.833 42.832 180.905 43.08 181.049 43.288C181.193 43.48 181.385 43.632 181.625 43.744C181.865 43.84 182.129 43.888 182.417 43.888C182.833 43.888 183.217 43.8 183.569 43.624C183.921 43.448 184.209 43.184 184.433 42.832C184.657 42.48 184.769 42.048 184.769 41.536L185.153 42.976C185.153 43.68 184.961 44.28 184.577 44.776C184.193 45.256 183.697 45.624 183.089 45.88C182.481 46.12 181.825 46.24 181.121 46.24C180.417 46.24 179.761 46.112 179.153 45.856C178.561 45.584 178.081 45.184 177.713 44.656C177.361 44.128 177.185 43.488 177.185 42.736C177.185 41.68 177.561 40.848 178.313 40.24C179.065 39.616 180.129 39.304 181.505 39.304C182.177 39.304 182.777 39.368 183.305 39.496C183.849 39.624 184.313 39.784 184.697 39.976C185.081 40.168 185.369 40.368 185.561 40.576V42.184C185.177 41.896 184.729 41.68 184.217 41.536C183.721 41.376 183.193 41.296 182.633 41.296C182.201 41.296 181.857 41.344 181.601 41.44C181.345 41.536 181.153 41.68 181.025 41.872C180.897 42.048 180.833 42.272 180.833 42.544ZM179.225 38.344L178.001 35.92C178.625 35.616 179.377 35.328 180.257 35.056C181.137 34.784 182.097 34.648 183.137 34.648C184.113 34.648 184.985 34.792 185.753 35.08C186.521 35.352 187.129 35.752 187.577 36.28C188.025 36.808 188.249 37.456 188.249 38.224V46H184.769V39.04C184.769 38.768 184.721 38.536 184.625 38.344C184.545 38.136 184.417 37.96 184.241 37.816C184.065 37.672 183.841 37.568 183.569 37.504C183.313 37.44 183.017 37.408 182.681 37.408C182.185 37.408 181.697 37.464 181.217 37.576C180.753 37.688 180.345 37.824 179.993 37.984C179.641 38.128 179.385 38.248 179.225 38.344ZM194.011 40.48C194.011 41.072 194.139 41.584 194.395 42.016C194.651 42.432 195.003 42.76 195.451 43C195.915 43.24 196.411 43.36 196.939 43.36C197.387 43.36 197.811 43.296 198.211 43.168C198.627 43.024 199.003 42.832 199.339 42.592C199.691 42.352 199.979 42.056 200.203 41.704V45.232C199.819 45.536 199.339 45.784 198.763 45.976C198.187 46.152 197.483 46.24 196.651 46.24C195.435 46.24 194.339 46 193.363 45.52C192.403 45.04 191.643 44.368 191.083 43.504C190.539 42.64 190.267 41.632 190.267 40.48C190.267 39.312 190.539 38.304 191.083 37.456C191.643 36.592 192.403 35.92 193.363 35.44C194.339 34.96 195.435 34.72 196.651 34.72C197.483 34.72 198.187 34.816 198.763 35.008C199.339 35.184 199.819 35.408 200.203 35.68V39.232C199.979 38.88 199.683 38.584 199.315 38.344C198.963 38.104 198.579 37.92 198.163 37.792C197.747 37.664 197.339 37.6 196.939 37.6C196.411 37.6 195.915 37.728 195.451 37.984C195.003 38.24 194.651 38.584 194.395 39.016C194.139 39.448 194.011 39.936 194.011 40.48ZM208.438 46.24C207.158 46.24 206.046 46.008 205.102 45.544C204.174 45.064 203.454 44.392 202.942 43.528C202.43 42.664 202.174 41.648 202.174 40.48C202.174 39.296 202.422 38.272 202.918 37.408C203.414 36.544 204.126 35.88 205.054 35.416C205.998 34.952 207.11 34.72 208.39 34.72C209.67 34.72 210.75 34.944 211.63 35.392C212.51 35.824 213.182 36.456 213.646 37.288C214.11 38.12 214.342 39.128 214.342 40.312C214.342 40.488 214.342 40.664 214.342 40.84C214.342 41 214.326 41.136 214.294 41.248H204.214V39.232H211.03L210.166 40.336C210.246 40.224 210.31 40.088 210.358 39.928C210.422 39.752 210.454 39.608 210.454 39.496C210.454 39.016 210.366 38.6 210.19 38.248C210.014 37.896 209.766 37.624 209.446 37.432C209.126 37.24 208.75 37.144 208.318 37.144C207.774 37.144 207.318 37.264 206.95 37.504C206.582 37.744 206.302 38.112 206.11 38.608C205.934 39.088 205.838 39.696 205.822 40.432C205.822 41.104 205.918 41.68 206.11 42.16C206.302 42.64 206.59 43.008 206.974 43.264C207.358 43.504 207.83 43.624 208.39 43.624C209.03 43.624 209.574 43.504 210.022 43.264C210.486 43.024 210.854 42.664 211.126 42.184L214.366 42.976C213.79 44.064 213.006 44.88 212.014 45.424C211.038 45.968 209.846 46.24 208.438 46.24Z" fill="white"/>
<path d="M17 18.414H33.5306C35.3673 18.414 36.8367 19.9427 36.8367 21.8535C36.8367 23.7643 35.3673 25.293 33.5306 25.293H17C17.6122 33.9554 24.5918 40.707 33.0408 40.707H33.6531C35.4898 40.707 36.9592 42.2357 36.9592 44.1465C36.9592 46.0573 35.4898 47.586 33.6531 47.586H33.0408C24.5918 47.586 17.6122 54.3376 17 63H60.9592C69.4082 63 76.3878 56.2484 77 47.586H60.4694C58.6327 47.586 57.1633 46.0573 57.1633 44.1465C57.1633 42.2357 58.6327 40.707 60.4694 40.707H77C76.3878 32.0446 69.4082 25.293 60.9592 25.293H60.3469C58.5102 25.293 57.0408 23.7643 57.0408 21.8535C57.0408 19.9427 58.5102 18.414 60.3469 18.414H60.9592C69.4082 18.414 76.3878 11.6624 77 3H33.0408C24.5918 3 17.6122 9.75159 17 18.414Z" fill="white"/>
</svg>
