<svg width="40" height="40" viewBox="0 0 40 40" fill="none" xmlns="http://www.w3.org/2000/svg">
<path d="M0 10.276H11.0204C12.2449 10.276 13.2245 11.2951 13.2245 12.569C13.2245 13.8429 12.2449 14.862 11.0204 14.862H0C0.408163 20.6369 5.06122 25.138 10.6939 25.138H11.102C12.3265 25.138 13.3061 26.1571 13.3061 27.431C13.3061 28.7049 12.3265 29.724 11.102 29.724H10.6939C5.06122 29.724 0.408163 34.2251 0 40H29.3061C34.9388 40 39.5918 35.4989 40 29.724H28.9796C27.7551 29.724 26.7755 28.7049 26.7755 27.431C26.7755 26.1571 27.7551 25.138 28.9796 25.138H40C39.5918 19.3631 34.9388 14.862 29.3061 14.862H28.898C27.6735 14.862 26.6939 13.8429 26.6939 12.569C26.6939 11.2951 27.6735 10.276 28.898 10.276H29.3061C34.9388 10.276 39.5918 5.77495 40 0H10.6939C5.06122 0 0.408163 4.50106 0 10.276Z" fill="white"/>
</svg>
