<svg width="375" height="148" viewBox="0 0 375 148" fill="none" xmlns="http://www.w3.org/2000/svg">
<path d="M0 49.0021H31.1326C34.5918 49.0021 37.3592 51.7792 37.3592 55.2505C37.3592 58.7219 34.5918 61.4989 31.1326 61.4989H0C1.15306 77.2357 14.298 89.5011 30.2102 89.5011H31.3633C34.8224 89.5011 37.5898 92.2781 37.5898 95.7495C37.5898 99.2208 34.8224 101.998 31.3633 101.998H30.2102C14.298 101.998 1.15306 114.263 0 130H82.7898C98.702 130 111.847 117.735 113 101.998H81.8674C78.4082 101.998 75.6408 99.2208 75.6408 95.7495C75.6408 92.2781 78.4082 89.5011 81.8674 89.5011H113C111.847 73.7643 98.702 61.4989 82.7898 61.4989H81.6367C78.1775 61.4989 75.4102 58.7219 75.4102 55.2505C75.4102 51.7792 78.1775 49.0021 81.6367 49.0021H82.7898C98.702 49.0021 111.847 36.7367 113 21H30.2102C14.298 21 1.15306 33.2654 0 49.0021Z" fill="white"/>
<path d="M147.877 62.24V58.4H162.901V62.24H147.877ZM147.877 75.68V71.84H162.421V75.68H147.877ZM145.621 58.4H149.701V92H145.621V58.4ZM169.381 54.56H173.221V92H169.381V54.56ZM178.524 80.96C178.524 78.72 179.02 76.736 180.012 75.008C181.036 73.28 182.412 71.92 184.14 70.928C185.868 69.936 187.804 69.44 189.948 69.44C192.124 69.44 194.06 69.936 195.756 70.928C197.484 71.92 198.844 73.28 199.836 75.008C200.86 76.736 201.372 78.72 201.372 80.96C201.372 83.168 200.86 85.152 199.836 86.912C198.844 88.64 197.484 90 195.756 90.992C194.06 91.984 192.124 92.48 189.948 92.48C187.804 92.48 185.868 91.984 184.14 90.992C182.412 90 181.036 88.64 180.012 86.912C179.02 85.152 178.524 83.168 178.524 80.96ZM182.412 80.96C182.412 82.496 182.732 83.856 183.372 85.04C184.044 86.224 184.94 87.168 186.06 87.872C187.212 88.544 188.508 88.88 189.948 88.88C191.388 88.88 192.668 88.544 193.788 87.872C194.94 87.168 195.836 86.224 196.476 85.04C197.148 83.856 197.484 82.496 197.484 80.96C197.484 79.424 197.148 78.064 196.476 76.88C195.836 75.664 194.94 74.72 193.788 74.048C192.668 73.376 191.388 73.04 189.948 73.04C188.508 73.04 187.212 73.376 186.06 74.048C184.94 74.72 184.044 75.664 183.372 76.88C182.732 78.064 182.412 79.424 182.412 80.96ZM202.584 69.92H206.904L212.424 84.272L218.424 68.24L224.856 84.368L230.424 69.92H234.744L225.144 93.68L218.472 77.6L212.184 93.68L202.584 69.92ZM240.057 81.824C240.825 83.168 241.625 84.352 242.457 85.376C243.321 86.4 244.281 87.2 245.337 87.776C246.393 88.352 247.593 88.64 248.937 88.64C250.729 88.64 252.169 88.144 253.257 87.152C254.345 86.16 254.889 84.896 254.889 83.36C254.889 81.856 254.537 80.656 253.833 79.76C253.129 78.864 252.201 78.144 251.049 77.6C249.929 77.024 248.729 76.512 247.449 76.064C246.617 75.776 245.689 75.408 244.665 74.96C243.641 74.48 242.665 73.888 241.737 73.184C240.809 72.448 240.041 71.552 239.433 70.496C238.857 69.44 238.569 68.144 238.569 66.608C238.569 64.944 238.985 63.456 239.817 62.144C240.649 60.832 241.801 59.808 243.273 59.072C244.745 58.304 246.425 57.92 248.313 57.92C250.137 57.92 251.721 58.272 253.065 58.976C254.441 59.648 255.609 60.528 256.569 61.616C257.529 62.672 258.281 63.792 258.825 64.976L255.321 66.992C254.905 66.16 254.377 65.344 253.737 64.544C253.097 63.744 252.313 63.088 251.385 62.576C250.489 62.064 249.385 61.808 248.073 61.808C246.249 61.808 244.921 62.256 244.089 63.152C243.257 64.016 242.841 64.992 242.841 66.08C242.841 67.008 243.081 67.872 243.561 68.672C244.041 69.44 244.841 70.176 245.961 70.88C247.113 71.552 248.665 72.224 250.617 72.896C251.513 73.216 252.457 73.632 253.449 74.144C254.441 74.656 255.353 75.312 256.185 76.112C257.049 76.88 257.753 77.824 258.297 78.944C258.841 80.032 259.113 81.344 259.113 82.88C259.113 84.352 258.825 85.68 258.249 86.864C257.705 88.048 256.937 89.056 255.945 89.888C254.985 90.72 253.881 91.36 252.633 91.808C251.417 92.256 250.137 92.48 248.793 92.48C246.969 92.48 245.273 92.096 243.705 91.328C242.169 90.528 240.809 89.488 239.625 88.208C238.473 86.896 237.529 85.504 236.793 84.032L240.057 81.824ZM268.466 102.56H264.626V69.92H268.466V102.56ZM286.946 80.96C286.946 83.328 286.45 85.376 285.458 87.104C284.466 88.832 283.138 90.16 281.474 91.088C279.842 92.016 278.018 92.48 276.002 92.48C274.178 92.48 272.562 92.016 271.154 91.088C269.778 90.16 268.69 88.832 267.89 87.104C267.122 85.376 266.738 83.328 266.738 80.96C266.738 78.56 267.122 76.512 267.89 74.816C268.69 73.088 269.778 71.76 271.154 70.832C272.562 69.904 274.178 69.44 276.002 69.44C278.018 69.44 279.842 69.904 281.474 70.832C283.138 71.76 284.466 73.088 285.458 74.816C286.45 76.512 286.946 78.56 286.946 80.96ZM283.058 80.96C283.058 79.264 282.706 77.824 282.002 76.64C281.33 75.456 280.418 74.56 279.266 73.952C278.146 73.344 276.898 73.04 275.522 73.04C274.402 73.04 273.298 73.344 272.21 73.952C271.122 74.56 270.226 75.456 269.522 76.64C268.818 77.824 268.466 79.264 268.466 80.96C268.466 82.656 268.818 84.096 269.522 85.28C270.226 86.464 271.122 87.36 272.21 87.968C273.298 88.576 274.402 88.88 275.522 88.88C276.898 88.88 278.146 88.576 279.266 87.968C280.418 87.36 281.33 86.464 282.002 85.28C282.706 84.096 283.058 82.656 283.058 80.96ZM293.969 85.184C293.969 86.016 294.161 86.736 294.545 87.344C294.961 87.952 295.521 88.416 296.225 88.736C296.961 89.024 297.793 89.168 298.721 89.168C299.905 89.168 300.961 88.928 301.889 88.448C302.849 87.968 303.601 87.296 304.145 86.432C304.721 85.536 305.009 84.512 305.009 83.36L305.777 86.24C305.777 87.648 305.345 88.816 304.481 89.744C303.649 90.672 302.609 91.36 301.361 91.808C300.145 92.256 298.929 92.48 297.713 92.48C296.369 92.48 295.105 92.208 293.921 91.664C292.769 91.088 291.841 90.272 291.137 89.216C290.433 88.16 290.081 86.88 290.081 85.376C290.081 83.232 290.833 81.52 292.337 80.24C293.873 78.928 296.001 78.272 298.721 78.272C300.321 78.272 301.649 78.464 302.705 78.848C303.793 79.2 304.657 79.616 305.297 80.096C305.937 80.544 306.369 80.912 306.593 81.2V83.456C305.473 82.688 304.321 82.144 303.137 81.824C301.953 81.472 300.689 81.296 299.345 81.296C298.097 81.296 297.073 81.456 296.273 81.776C295.505 82.096 294.929 82.544 294.545 83.12C294.161 83.696 293.969 84.384 293.969 85.184ZM293.393 75.008L291.521 72.176C292.353 71.568 293.489 70.96 294.929 70.352C296.401 69.744 298.161 69.44 300.209 69.44C301.937 69.44 303.441 69.712 304.721 70.256C306.033 70.768 307.041 71.52 307.745 72.512C308.481 73.504 308.849 74.72 308.849 76.16V92H305.009V76.688C305.009 75.92 304.881 75.296 304.625 74.816C304.369 74.304 304.001 73.904 303.521 73.616C303.073 73.328 302.545 73.12 301.937 72.992C301.329 72.864 300.689 72.8 300.017 72.8C298.929 72.8 297.937 72.928 297.041 73.184C296.177 73.44 295.441 73.744 294.833 74.096C294.225 74.448 293.745 74.752 293.393 75.008ZM317.078 80.96C317.078 82.496 317.398 83.856 318.038 85.04C318.71 86.224 319.606 87.168 320.726 87.872C321.878 88.544 323.174 88.88 324.614 88.88C325.798 88.88 326.902 88.704 327.926 88.352C328.982 87.968 329.894 87.472 330.662 86.864C331.43 86.224 331.974 85.552 332.294 84.848V89.648C331.526 90.544 330.422 91.248 328.982 91.76C327.574 92.24 326.118 92.48 324.614 92.48C322.47 92.48 320.534 91.984 318.806 90.992C317.078 90 315.702 88.64 314.678 86.912C313.686 85.152 313.19 83.168 313.19 80.96C313.19 78.72 313.686 76.736 314.678 75.008C315.702 73.28 317.078 71.92 318.806 70.928C320.534 69.936 322.47 69.44 324.614 69.44C326.118 69.44 327.574 69.696 328.982 70.208C330.422 70.688 331.526 71.376 332.294 72.272V77.072C331.974 76.336 331.43 75.664 330.662 75.056C329.894 74.448 328.982 73.968 327.926 73.616C326.902 73.232 325.798 73.04 324.614 73.04C323.174 73.04 321.878 73.376 320.726 74.048C319.606 74.72 318.71 75.664 318.038 76.88C317.398 78.064 317.078 79.424 317.078 80.96ZM346.816 92.48C344.768 92.48 342.944 92 341.344 91.04C339.776 90.048 338.544 88.688 337.648 86.96C336.784 85.232 336.352 83.232 336.352 80.96C336.352 78.656 336.8 76.64 337.696 74.912C338.624 73.184 339.904 71.84 341.536 70.88C343.2 69.92 345.12 69.44 347.296 69.44C349.472 69.44 351.328 69.904 352.864 70.832C354.432 71.728 355.632 73.024 356.464 74.72C357.296 76.416 357.712 78.432 357.712 80.768C357.712 80.992 357.696 81.232 357.664 81.488C357.664 81.712 357.664 81.856 357.664 81.92H338.8V78.656H354.64L353.104 80.864C353.2 80.704 353.296 80.464 353.392 80.144C353.488 79.792 353.536 79.504 353.536 79.28C353.536 77.968 353.264 76.832 352.72 75.872C352.208 74.912 351.488 74.16 350.56 73.616C349.632 73.072 348.544 72.8 347.296 72.8C345.824 72.8 344.56 73.12 343.504 73.76C342.48 74.368 341.68 75.264 341.104 76.448C340.56 77.6 340.272 79.024 340.24 80.72C340.24 82.448 340.512 83.92 341.056 85.136C341.6 86.352 342.4 87.28 343.456 87.92C344.512 88.56 345.792 88.88 347.296 88.88C348.8 88.88 350.128 88.56 351.28 87.92C352.432 87.248 353.408 86.24 354.208 84.896L357.328 86.864C356.176 88.72 354.72 90.128 352.96 91.088C351.232 92.016 349.184 92.48 346.816 92.48Z" fill="white"/>
</svg>
